<svg xmlns="http://www.w3.org/2000/svg" viewBox="0 0 680 282" role="img" aria-label="Searches that showed her site, 12 months" class="chart">
<title>Searches that showed her site in the last 12 months, by impressions</title>
<rect x="250" y="6" width="12" height="12" rx="2" fill="#a7a196"/><text x="268" y="16" font-family="'IBM Plex Mono', ui-monospace, monospace" font-size="11" fill="#474b45">her name</text>
<rect x="360" y="6" width="12" height="12" rx="2" fill="#1d7a58"/><text x="378" y="16" font-family="'IBM Plex Mono', ui-monospace, monospace" font-size="11" fill="#474b45">what she treats</text>
<text x="240" y="49" text-anchor="end" font-family="'IBM Plex Mono', ui-monospace, monospace" font-size="11.5" fill="#1f2320">madison peterson</text>
<path d="M250,38 L533.5,38 Q537.5,38 537.5,42.0 L537.5,48.0 Q537.5,52 533.5,52 L250,52 Z" fill="#a7a196"><title>madison peterson: 371 impressions, 4 clicks</title></path>
<text x="545.5" y="49" font-family="'IBM Plex Mono', ui-monospace, monospace" font-size="11.5" fill="#474b45">371  ·  4 clicks</text>
<text x="240" y="79" text-anchor="end" font-family="'IBM Plex Mono', ui-monospace, monospace" font-size="11.5" fill="#1f2320">madison petersen</text>
<path d="M250,68 L366.1,68 Q370.1,68 370.1,72.0 L370.1,78.0 Q370.1,82 366.1,82 L250,82 Z" fill="#a7a196"><title>madison petersen: 155 impressions, 5 clicks</title></path>
<text x="378.1" y="79" font-family="'IBM Plex Mono', ui-monospace, monospace" font-size="11.5" fill="#474b45">155  ·  5 clicks</text>
<text x="240" y="109" text-anchor="end" font-family="'IBM Plex Mono', ui-monospace, monospace" font-size="11.5" fill="#1f2320">madi peterson</text>
<path d="M250,98 L342.1,98 Q346.1,98 346.1,102.0 L346.1,108.0 Q346.1,112 342.1,112 L250,112 Z" fill="#a7a196"><title>madi peterson: 124 impressions, 15 clicks</title></path>
<text x="354.1" y="109" font-family="'IBM Plex Mono', ui-monospace, monospace" font-size="11.5" fill="#474b45">124  ·  15 clicks</text>
<text x="240" y="139" text-anchor="end" font-family="'IBM Plex Mono', ui-monospace, monospace" font-size="11.5" fill="#1f2320">postpartum therapist in tulsa</text>
<path d="M250,128 L261.5,128 Q265.5,128 265.5,132.0 L265.5,138.0 Q265.5,142 261.5,142 L250,142 Z" fill="#1d7a58"><title>postpartum therapist in tulsa: 20 impressions, 0 clicks</title></path>
<text x="273.5" y="139" font-family="'IBM Plex Mono', ui-monospace, monospace" font-size="11.5" fill="#474b45">20  ·  0 clicks</text>
<text x="240" y="169" text-anchor="end" font-family="'IBM Plex Mono', ui-monospace, monospace" font-size="11.5" fill="#1f2320">ppd therapist tulsa</text>
<path d="M250,158 L256.9,158 Q260.9,158 260.9,162.0 L260.9,168.0 Q260.9,172 256.9,172 L250,172 Z" fill="#1d7a58"><title>ppd therapist tulsa: 14 impressions, 0 clicks</title></path>
<text x="268.9" y="169" font-family="'IBM Plex Mono', ui-monospace, monospace" font-size="11.5" fill="#474b45">14  ·  0 clicks</text>
<text x="240" y="199" text-anchor="end" font-family="'IBM Plex Mono', ui-monospace, monospace" font-size="11.5" fill="#1f2320">postpartum depression</text>
<path d="M250,188 L256.1,188 Q260.1,188 260.1,192.0 L260.1,198.0 Q260.1,202 256.1,202 L250,202 Z" fill="#1d7a58"><title>postpartum depression: 13 impressions, 0 clicks</title></path>
<text x="268.1" y="199" font-family="'IBM Plex Mono', ui-monospace, monospace" font-size="11.5" fill="#474b45">13  ·  0 clicks</text>
<text x="240" y="229" text-anchor="end" font-family="'IBM Plex Mono', ui-monospace, monospace" font-size="11.5" fill="#1f2320">postpartum anxiety therapist tulsa</text>
<path d="M250,218 L252.3,218 Q254.7,218 254.7,220.3 L254.7,229.7 Q254.7,232 252.3,232 L250,232 Z" fill="#1d7a58"><title>postpartum anxiety therapist tulsa: 6 impressions, 0 clicks</title></path>
<text x="262.6" y="229" font-family="'IBM Plex Mono', ui-monospace, monospace" font-size="11.5" fill="#474b45">6  ·  0 clicks</text>
<text x="240" y="259" text-anchor="end" font-family="'IBM Plex Mono', ui-monospace, monospace" font-size="11.5" fill="#1f2320">9 others, 1 showing each</text>
<path d="M250,248 L253.5,248 Q257.0,248 257.0,251.5 L257.0,258.5 Q257.0,262 253.5,262 L250,262 Z" fill="#1d7a58"><title>9 others, 1 showing each: 9 impressions, 0 clicks</title></path>
<text x="265.0" y="259" font-family="'IBM Plex Mono', ui-monospace, monospace" font-size="11.5" fill="#474b45">9  ·  0 clicks</text>
</svg>